<svg xmlns="http://www.w3.org/2000/svg" xmlns:xlink="http://www.w3.org/1999/xlink" version="1.1" width="61200" height="79200" viewBox="0 0 612 792">

<g id="layer_1" data-name="Layer 1">
<path transform="matrix(1,0,0,-1,0,792)" d="M294.8655 488.0146H294.9154 294.8655L295.0923 435.507 304.3295 438.5268V465.7068L339.8587 434.071H339.859V484.5583H330.3893V456.2677Z" fill="#0c2657" fill-rule="evenodd"/>
<path transform="matrix(1,0,0,-1,0,792)" d="M232.5705 436.7154V483.961H278.1757L275.4221 473.1245H241.5804V466.907H276.5769L268.4052 456.1594H242.0246V440.1709Z" fill="#0c2657" fill-rule="evenodd"/>
<path transform="matrix(1,0,0,-1,0,792)" d="M281.105 484.1376H290.8755V439.5487L281.8757 436.6715Z" fill="#0c2657" fill-rule="evenodd"/>
<path transform="matrix(1,0,0,-1,0,792)" d="M343.3507 484.1376H353.1214V439.5487L344.1217 436.6715Z" fill="#0c2657" fill-rule="evenodd"/>
<path transform="matrix(1,0,0,-1,0,792)" d="M400.9527 469.0165C400.9527 469.0165 402.0446 475.7406 397.0426 481.7795 395.7358 483.3561 391.8747 484.2213 390.005 484.338H366.5738C360.7277 484.338 357.414 478.0562 357.0809 472.9941 356.6466 466.357 356.6852 457.2893 357.0701 450.6361 357.4508 444.1133 361.3479 438.9494 368.3908 438.9494H390.7151C390.7151 438.9494 401.6174 438.7269 401.2849 453.8716L392.3138 457.2471V452.948C392.3138 452.948 392.8643 450.6741 390.7327 449.8926H367.994C367.994 449.8926 366.0043 449.8926 366.0043 452.8057V471.2899C366.0043 471.2899 365.7932 473.222 368.2582 473.4218H390.1748C390.1748 473.4218 392.1403 473.5049 392.2401 471.7395V465.952Z" fill="#0c2657" fill-rule="evenodd"/>
<path transform="matrix(1,0,0,-1,0,792)" d="M414.0298 485.2936H405.1698V435.8636L414.4586 438.3524V456.3153H425.7541L438.8114 438.9279H450.536L433.3484 461.5778 450.5023 484.6606H438.2113L425.6206 467.2069H414.3288C414.3288 467.2069 414.3288 485.2936 414.0298 485.2936" fill="#0c2657" fill-rule="evenodd"/>
<path transform="matrix(1,0,0,-1,0,792)" d="M452.2666 484.56H463.8912L475.0498 470.2706 486.6412 484.8599H498.2845L479.7128 460.2112V441.3589L471.1859 438.2277V459.612Z" fill="#0c2657" fill-rule="evenodd"/>
<text fill="#ed1c24" xml:space="preserve" transform="matrix(.71895757 0 -0 1.3909026 0 792)" font-size="16.903412" font-family="Neons"><tspan y="-295.90879" x="478.17347 513.029 547.3661 582.99057 617.0291 651.0415">SPORTS</tspan></text>
<path transform="matrix(1,0,0,-1,0,792)" d="M246.1141 528.6878 228.5271 498.5768C209.3618 500.9077 165.403 498.3786 173.234 468.4827 179.5093 444.5308 205.6703 418.9808 224.53 406.1117 106.8789 423.8408 93.4515 555.412 246.1141 528.6878" fill="#0c2657" fill-rule="evenodd"/>
<path transform="matrix(1,0,0,-1,0,792)" d="M221.3323 484.7202 197.8829 446.6151C190.3124 454.9768 180.9833 470.0208 190.0236 480.314 192.9413 483.6362 200.7173 487.8386 221.3323 484.7202" fill="#ed1c24" fill-rule="evenodd"/>
<path transform="matrix(1,0,0,-1,0,792)" d="M281.4806 329.637 281.5305 329.6373 281.4806 329.637 281.7071 277.1294 290.9446 280.1494V307.3292L326.4738 275.6934H326.4741V326.1807H317.0044V297.8901Z" fill-rule="evenodd"/>
<path transform="matrix(1,0,0,-1,0,792)" d="M219.1856 278.3378V325.5834H264.7908L262.0372 314.7469H228.1955V308.5294H263.192L255.0203 297.7818H228.6397V281.7935Z" fill-rule="evenodd"/>
<path transform="matrix(1,0,0,-1,0,792)" d="M267.7201 325.7603H277.4906V281.1711L268.4908 278.2942Z" fill-rule="evenodd"/>
<path transform="matrix(1,0,0,-1,0,792)" d="M329.9658 325.7603H339.7365V281.1711L330.7368 278.2942Z" fill-rule="evenodd"/>
<path transform="matrix(1,0,0,-1,0,792)" d="M387.5678 310.6389C387.5678 310.6389 388.6597 317.3632 383.6577 323.4019 382.3509 324.9785 378.4898 325.8439 376.6201 325.9607H353.1889C347.3427 325.9607 344.029 319.6789 343.696 314.6168 343.2617 307.9797 343.3003 298.912 343.6852 292.2585 344.0659 285.7357 347.963 280.5718 355.0059 280.5718H377.3302C377.3302 280.5718 388.2325 280.3493 387.9 295.4942L378.9289 298.8694V294.5704C378.9289 294.5704 379.4794 292.2965 377.3477 291.515H354.6091C354.6091 291.515 352.6194 291.515 352.6194 294.4284V312.9123C352.6194 312.9123 352.4083 314.8444 354.8733 315.0442H376.7899C376.7899 315.0442 378.7554 315.1273 378.8552 313.3619V307.5746Z" fill-rule="evenodd"/>
<path transform="matrix(1,0,0,-1,0,792)" d="M400.6449 326.916H391.7849V277.486L401.0737 279.9751V297.9377H412.3692L425.4265 280.5503H437.1511L419.9635 303.2005 437.1174 326.283H424.8264L412.2357 308.8293H400.9439C400.9439 308.8293 400.9439 326.916 400.6449 326.916" fill-rule="evenodd"/>
<path transform="matrix(1,0,0,-1,0,792)" d="M438.8817 326.1824H450.5063L461.6649 311.8932 473.2563 326.4823H484.8996L466.3278 301.8339V282.9813L457.8009 279.8501V301.2344Z" fill-rule="evenodd"/>
<text xml:space="preserve" transform="matrix(.71895757 0 -0 1.3909026 0 792)" font-size="16.903412" font-family="Neons"><tspan y="-182.04222" x="459.55635 494.4119 528.74899 564.37368 598.41177 632.42459">SPORTS</tspan></text>
<path transform="matrix(1,0,0,-1,0,792)" d="M232.7292 370.3105 215.1422 340.1994C195.9769 342.5301 152.0181 340.001 159.8491 310.1054 166.1244 286.1532 192.2854 260.6031 211.1451 247.7344 93.494 265.4631 80.0666 397.0344 232.7292 370.3105" fill-rule="evenodd"/>
<path transform="matrix(1,0,0,-1,0,792)" d="M207.9473 326.3428 184.498 288.2378C176.9275 296.5992 167.5984 311.6432 176.6387 321.9364 179.5564 325.2589 187.3324 329.4609 207.9473 326.3428" fill-rule="evenodd"/>
<path transform="matrix(1,0,0,-1,0,792)" stroke-width=".5" stroke-linecap="butt" stroke-miterlimit="2.6131259" stroke-linejoin="miter" fill="none" stroke="#231f20" d="M67.7571 624.7522H538.4477V174.526H67.7571Z"/>
</g>
</svg>
